<svg width="190" height="30" viewBox="0 0 190 30" fill="none" xmlns="http://www.w3.org/2000/svg">
<path d="M17.704 22.7137C15.3023 21.8216 12.832 21.6844 10.5676 22.302C8.98929 22.7137 7.47965 23.5371 6.10725 24.5664L5.14655 25.3899L4.87207 25.6644L5.48965 26.2133C5.55827 26.2133 5.55828 26.2819 5.6269 26.3506C5.76414 26.4878 5.90138 26.5564 6.10725 26.6937L6.51895 26.9681L6.93067 26.625C6.99929 26.5564 7.13653 26.4192 7.27378 26.3506C8.50894 25.3213 9.88134 24.6351 11.3224 24.2919C13.1751 23.8116 15.1651 23.8802 17.1551 24.6351C18.802 25.2526 22.1643 26.0075 26.2129 24.2919L26.3502 24.2233L26.556 24.0175C26.556 23.9489 26.6247 23.9488 26.6933 23.8802C27.0364 23.4685 27.3795 23.0568 27.654 22.5764L29.0264 20.4492L26.8305 21.6844C23.6054 23.4685 20.6547 23.8116 17.704 22.7137Z" fill="url(#paint0_linear_130_619)"/>
<path d="M8.30369 15.302C10.1564 14.8217 12.1464 14.8903 14.1364 15.6451C16.3322 16.4685 21.9591 17.6351 28.2722 11.9396L29.3015 10.9103L29.3701 10.8417L29.6446 10.5672L29.5073 10.2241C29.4387 9.94963 29.3014 9.60653 29.1642 9.26343L28.8211 8.30273L28.1349 8.98894C28.0663 9.12618 27.929 9.1948 27.7918 9.33204C24.7725 12.4199 20.1063 15.5765 14.754 13.6551C12.3523 12.7631 9.88195 12.6258 7.61749 13.2434C5.42164 13.861 3.50028 15.0275 1.71615 16.6744V16.6058L0.686851 17.7037C0.686851 17.7723 0.618243 17.7723 0.549623 17.841L0.34375 18.0468L0.412374 18.3213C0.480994 18.6644 0.618231 19.0075 0.686851 19.3506L1.09858 20.4485L1.78478 19.5565C1.8534 19.4192 1.99063 19.3506 2.05925 19.2134C3.50028 17.9096 5.49026 16.0568 8.30369 15.302Z" fill="url(#paint1_linear_130_619)"/>
<path d="M1.6469 14.0672C3.22516 12.4203 5.00927 11.391 6.93064 10.842C8.78338 10.3617 10.7734 10.4303 12.7633 11.1851C18.9392 13.4496 24.2915 9.74411 26.6246 7.75412L27.5167 6.86207L27.8598 6.58757L27.5853 6.17587C27.3794 5.97001 27.2422 5.69552 27.0364 5.42104L26.6246 4.87207L26.1443 5.35242C26.0757 5.42104 25.9384 5.55828 25.8698 5.6269C22.9878 8.3717 18.5274 11.1851 13.4496 9.26378C11.0478 8.37171 8.57753 8.23447 6.31306 8.85205C4.87204 9.26377 3.49963 9.94997 2.12723 10.842L0.686201 12.0086C0.548961 12.1458 0.480341 12.2144 0.343101 12.3517L0.205873 12.4889V12.6948C0.137253 13.1751 0.137244 13.6555 0.0686243 14.0672L0 15.7827L1.16655 14.5475C1.30379 14.4103 1.44104 14.2044 1.6469 14.0672Z" fill="url(#paint2_linear_130_619)"/>
<path d="M19.6948 27.3794L19.5576 27.7911L19.6948 27.3794C19.489 27.3107 19.3517 27.2421 19.1459 27.1735C16.7442 26.2814 14.2738 26.1442 12.0094 26.7618C11.529 26.899 11.0487 27.0363 10.5684 27.2421L8.92147 27.9969L8.50977 28.2028L9.88217 28.6831C10.2939 28.8204 10.7056 28.9576 11.1173 29.0949L11.3232 29.1635L11.529 29.0949C11.7349 29.0262 11.9408 28.889 12.1466 28.889C12.2839 28.889 12.4211 28.8204 12.5583 28.7518C14.2052 28.34 15.9893 28.34 17.9107 28.9576C18.1166 29.0262 18.2538 29.0949 18.4597 29.1635L18.8028 29.3007L19.0086 29.2321C19.489 29.0949 20.0379 28.9576 20.4497 28.7518L22.371 28.0656L20.381 27.5852C20.1752 27.5166 19.9007 27.448 19.6948 27.3794Z" fill="url(#paint3_linear_130_619)"/>
<path d="M30.193 13.1758L29.1637 14.2051C29.0265 14.3423 28.8893 14.4796 28.752 14.6168C25.9386 17.293 21.4097 20.175 16.3318 18.2537C13.9301 17.3616 11.4598 17.2244 9.19529 17.842C7.06806 18.4595 5.14668 19.5575 3.43118 21.2043L2.53912 22.165L2.26465 22.5081L2.53912 22.9198C2.74499 23.1943 2.88223 23.4002 3.01947 23.6747L3.43118 24.2923L3.91153 23.6747C3.98015 23.6061 4.11738 23.4688 4.186 23.4002C5.83289 21.6161 7.61701 20.5181 9.67561 19.9692C11.5284 19.4888 13.5183 19.5574 15.5083 20.3123C17.2238 20.9299 19.008 21.1357 20.7921 20.9299C23.9486 20.5868 27.1051 18.8026 29.4382 16.8127C29.5755 16.6754 29.7127 16.6068 29.8499 16.4696L30.0558 16.2637V16.0578C30.0558 15.6461 30.1244 15.1658 30.1244 14.7541L30.193 13.1758Z" fill="url(#paint4_linear_130_619)"/>
<path d="M4.11765 6.86227L3.9118 6.45054L4.11765 6.86227C4.52937 6.65641 5.00973 6.51916 5.42145 6.38192C7.27419 5.90158 9.26418 5.9702 11.2542 6.72502C12.5579 7.20536 13.8617 7.41122 15.3027 7.41122C18.1848 7.41122 21.0668 6.38192 23.743 4.39194L24.7723 3.56849L25.1154 3.29401L24.4978 2.81366C24.292 2.6078 24.0175 2.40195 23.743 2.26471L23.3313 1.99023L22.9882 2.26471C22.8509 2.33333 22.7823 2.47057 22.6451 2.53919C19.0082 5.28399 15.3714 6.03882 11.9404 4.73504C9.47004 3.84298 6.9997 3.63712 4.52937 4.39194C4.32351 4.46056 4.11765 4.52917 3.84317 4.59779L3.70595 4.66642L3.50007 4.87227C3.50007 4.94089 3.43146 4.9409 3.36284 5.00952C3.08836 5.42124 2.74525 5.76435 2.47077 6.17607L1.16699 8.16605L3.29422 7.06812C3.63732 7.06812 3.91179 6.93089 4.11765 6.86227Z" fill="url(#paint5_linear_130_619)"/>
<path d="M9.74468 2.19583L9.95053 2.26446C10.8426 2.60756 12.215 2.95066 13.9305 2.95066C15.7146 2.95066 17.4301 2.53893 19.1456 1.85273L21.2729 0.823429L19.8318 0.343101C19.4201 0.20586 19.0084 0.0686201 18.528 0H18.3222L18.1163 0.0686034C17.9105 0.137224 17.7046 0.274481 17.4987 0.343101C15.4401 1.09792 13.3815 1.23516 11.3916 0.686201C11.1857 0.617581 10.9798 0.548949 10.774 0.480328L10.5681 0.411704L10.3623 0.480328C9.95054 0.617569 9.53882 0.754817 9.1271 0.960678L7.54883 1.64688L9.19573 2.12721C9.33297 2.05859 9.53882 2.12721 9.74468 2.19583Z" fill="url(#paint6_linear_130_619)"/>
<path d="M44.8457 21.8652C43.1921 21.8652 41.6426 21.5527 40.1973 20.9277C40.041 20.8626 39.9043 20.752 39.7871 20.5957C39.6829 20.4395 39.6309 20.2767 39.6309 20.1074C39.6309 19.873 39.709 19.6777 39.8652 19.5215C40.0215 19.3522 40.2168 19.2676 40.4512 19.2676C40.5944 19.2676 40.7181 19.2936 40.8223 19.3457C42.0332 19.8796 43.3158 20.1465 44.6699 20.1465C46.9355 20.1465 48.0684 19.4043 48.0684 17.9199C48.0684 17.5293 47.9251 17.2103 47.6387 16.9629C47.3783 16.7155 47.0527 16.5202 46.6621 16.377C46.2715 16.2337 45.627 16.0449 44.7285 15.8105C43.6999 15.5501 42.847 15.2832 42.1699 15.0098C41.3757 14.7103 40.7767 14.2936 40.373 13.7598C39.9694 13.2129 39.7676 12.5684 39.7676 11.8262C39.7676 11.084 39.9629 10.4004 40.3535 9.77539C40.7572 9.13737 41.3496 8.64909 42.1309 8.31055C42.9251 7.97201 43.8301 7.80273 44.8457 7.80273C46.291 7.80273 47.5866 8.01758 48.7324 8.44727C49.11 8.59049 49.2988 8.85742 49.2988 9.24805C49.2988 9.45638 49.2207 9.65169 49.0645 9.83398C48.9082 10.0033 48.7194 10.0879 48.498 10.0879C48.4069 10.0879 48.3027 10.0618 48.1855 10.0098C47.1699 9.6582 46.1217 9.48242 45.041 9.48242C43.9993 9.48242 43.1595 9.67773 42.5215 10.0684C41.8965 10.459 41.584 10.9993 41.584 11.6895C41.584 12.1582 41.7402 12.5293 42.0527 12.8027C42.3392 13.0762 42.6973 13.2975 43.127 13.4668C43.5566 13.6361 44.2012 13.8184 45.0605 14.0137C46.1543 14.2741 46.9876 14.5215 47.5605 14.7559C48.2507 15.0163 48.804 15.4199 49.2207 15.9668C49.6504 16.5137 49.8652 17.2038 49.8652 18.0371C49.8652 18.7533 49.6569 19.4108 49.2402 20.0098C48.8105 20.6087 48.2116 21.071 47.4434 21.3965C46.6882 21.709 45.8223 21.8652 44.8457 21.8652ZM52.9512 21.7676C52.7038 21.7676 52.4889 21.6829 52.3066 21.5137C52.1374 21.3314 52.0527 21.1165 52.0527 20.8691V12.4902C52.0527 12.2428 52.1374 12.028 52.3066 11.8457C52.4889 11.6634 52.7038 11.5723 52.9512 11.5723C53.1986 11.5723 53.4134 11.6634 53.5957 11.8457C53.778 12.028 53.8691 12.2428 53.8691 12.4902V13.2324C54.403 12.6595 54.9564 12.2233 55.5293 11.9238C56.1022 11.6243 56.7533 11.4746 57.4824 11.4746C58.1986 11.4746 58.8301 11.6439 59.377 11.9824C59.8978 12.321 60.2949 12.7832 60.5684 13.3691C60.8548 13.9551 60.998 14.6061 60.998 15.3223V20.8691C60.998 21.1165 60.9069 21.3314 60.7246 21.5137C60.5423 21.6829 60.3275 21.7676 60.0801 21.7676C59.8327 21.7676 59.6178 21.6829 59.4355 21.5137C59.2663 21.3314 59.1816 21.1165 59.1816 20.8691V15.5176C59.1816 13.9421 58.472 13.1543 57.0527 13.1543C56.4277 13.1543 55.8613 13.3105 55.3535 13.623C54.8587 13.9355 54.3639 14.3978 53.8691 15.0098V20.8691C53.8691 21.1165 53.778 21.3314 53.5957 21.5137C53.4134 21.6829 53.1986 21.7676 52.9512 21.7676ZM66.5059 21.8652C65.946 21.8652 65.4186 21.748 64.9238 21.5137C64.416 21.2793 64.0189 20.9342 63.7324 20.4785C63.446 20.0228 63.3027 19.502 63.3027 18.916C63.3027 17.9004 63.6934 17.1191 64.4746 16.5723C65.2689 16.0124 66.3822 15.7324 67.8145 15.7324H70.1582V15.5957C70.1582 14.7624 69.9499 14.1569 69.5332 13.7793C69.1296 13.3887 68.472 13.1934 67.5605 13.1934C67.0918 13.1934 66.6686 13.2324 66.291 13.3105C65.9134 13.3757 65.4707 13.4928 64.9629 13.6621L64.709 13.7012C64.5137 13.7012 64.3379 13.6296 64.1816 13.4863C64.0384 13.3301 63.9668 13.1478 63.9668 12.9395C63.9668 12.5749 64.1426 12.321 64.4941 12.1777C65.5879 11.709 66.7142 11.4746 67.873 11.4746C68.7715 11.4746 69.5397 11.6569 70.1777 12.0215C70.7767 12.373 71.2259 12.8418 71.5254 13.4277C71.8249 14.0007 71.9746 14.6387 71.9746 15.3418V20.8691C71.9746 21.1165 71.8835 21.3314 71.7012 21.5137C71.5189 21.6829 71.304 21.7676 71.0566 21.7676C70.8092 21.7676 70.5944 21.6829 70.4121 21.5137C70.2428 21.3314 70.1582 21.1165 70.1582 20.8691V20.4004C69.2207 21.377 68.0033 21.8652 66.5059 21.8652ZM65.1191 18.7207C65.1191 19.7493 65.8027 20.2637 67.1699 20.2637C67.7298 20.2637 68.2702 20.1335 68.791 19.873C69.3249 19.5996 69.7806 19.248 70.1582 18.8184V17.1973H68.0488C66.0957 17.1973 65.1191 17.7051 65.1191 18.7207ZM75.8223 26.2598C75.5749 26.2598 75.36 26.1686 75.1777 25.9863C75.0085 25.804 74.9238 25.5892 74.9238 25.3418V12.4707C74.9238 12.2233 75.0085 12.015 75.1777 11.8457C75.36 11.6634 75.5749 11.5723 75.8223 11.5723C76.0697 11.5723 76.2845 11.6634 76.4668 11.8457C76.6491 12.015 76.7402 12.2233 76.7402 12.4707V12.9395C77.6777 11.9629 78.7845 11.4746 80.0605 11.4746C80.9069 11.4746 81.6751 11.6764 82.3652 12.0801C83.1204 12.4967 83.7129 13.1087 84.1426 13.916C84.5853 14.7233 84.8066 15.6413 84.8066 16.6699C84.8066 17.7376 84.5853 18.6556 84.1426 19.4238C83.6999 20.2051 83.1139 20.8105 82.3848 21.2402C81.6686 21.6569 80.8939 21.8652 80.0605 21.8652C78.7845 21.8652 77.6777 21.377 76.7402 20.4004V25.3418C76.7402 25.6022 76.6491 25.8171 76.4668 25.9863C76.2975 26.1686 76.0827 26.2598 75.8223 26.2598ZM76.7402 18.7207C77.1569 19.1634 77.6257 19.515 78.1465 19.7754C78.6803 20.0358 79.2337 20.166 79.8066 20.166C80.7962 20.166 81.571 19.86 82.1309 19.248C82.7038 18.623 82.9902 17.7637 82.9902 16.6699C82.9902 15.5762 82.7038 14.7233 82.1309 14.1113C81.571 13.4863 80.7962 13.1738 79.8066 13.1738C79.2337 13.1738 78.6803 13.304 78.1465 13.5645C77.6257 13.8249 77.1569 14.1764 76.7402 14.6191V18.7207ZM91.6426 21.8652C89.9889 21.8652 88.4395 21.5527 86.9941 20.9277C86.8379 20.8626 86.7012 20.752 86.584 20.5957C86.4798 20.4395 86.4277 20.2767 86.4277 20.1074C86.4277 19.873 86.5059 19.6777 86.6621 19.5215C86.8184 19.3522 87.0137 19.2676 87.248 19.2676C87.3913 19.2676 87.515 19.2936 87.6191 19.3457C88.8301 19.8796 90.1126 20.1465 91.4668 20.1465C93.7324 20.1465 94.8652 19.4043 94.8652 17.9199C94.8652 17.5293 94.722 17.2103 94.4355 16.9629C94.1751 16.7155 93.8496 16.5202 93.459 16.377C93.0684 16.2337 92.4238 16.0449 91.5254 15.8105C90.4967 15.5501 89.6439 15.2832 88.9668 15.0098C88.1725 14.7103 87.5736 14.2936 87.1699 13.7598C86.7663 13.2129 86.5645 12.5684 86.5645 11.8262C86.5645 11.084 86.7598 10.4004 87.1504 9.77539C87.554 9.13737 88.1465 8.64909 88.9277 8.31055C89.722 7.97201 90.627 7.80273 91.6426 7.80273C93.0879 7.80273 94.3835 8.01758 95.5293 8.44727C95.9069 8.59049 96.0957 8.85742 96.0957 9.24805C96.0957 9.45638 96.0176 9.65169 95.8613 9.83398C95.7051 10.0033 95.5163 10.0879 95.2949 10.0879C95.2038 10.0879 95.0996 10.0618 94.9824 10.0098C93.9668 9.6582 92.9186 9.48242 91.8379 9.48242C90.7962 9.48242 89.9564 9.67773 89.3184 10.0684C88.6934 10.459 88.3809 10.9993 88.3809 11.6895C88.3809 12.1582 88.5371 12.5293 88.8496 12.8027C89.1361 13.0762 89.4941 13.2975 89.9238 13.4668C90.3535 13.6361 90.998 13.8184 91.8574 14.0137C92.9512 14.2741 93.7845 14.5215 94.3574 14.7559C95.0475 15.0163 95.6009 15.4199 96.0176 15.9668C96.4473 16.5137 96.6621 17.2038 96.6621 18.0371C96.6621 18.7533 96.4538 19.4108 96.0371 20.0098C95.6074 20.6087 95.0085 21.071 94.2402 21.3965C93.485 21.709 92.6191 21.8652 91.6426 21.8652ZM103.635 21.8652C102.71 21.8652 101.844 21.6569 101.037 21.2402C100.217 20.8105 99.5723 20.1986 99.1035 19.4043C98.6348 18.61 98.4004 17.6986 98.4004 16.6699C98.4004 15.6152 98.6413 14.6908 99.123 13.8965C99.5918 13.1283 100.217 12.5358 100.998 12.1191C101.792 11.6895 102.671 11.4746 103.635 11.4746C104.286 11.4746 104.859 11.5592 105.354 11.7285C105.848 11.8848 106.343 12.1126 106.838 12.4121C107.098 12.5944 107.229 12.8288 107.229 13.1152C107.229 13.3105 107.15 13.4928 106.994 13.6621C106.838 13.8314 106.662 13.916 106.467 13.916C106.337 13.916 106.193 13.877 106.037 13.7988C105.581 13.5645 105.204 13.4017 104.904 13.3105C104.605 13.2194 104.234 13.1738 103.791 13.1738C102.697 13.1738 101.825 13.4928 101.174 14.1309C100.536 14.7559 100.217 15.6022 100.217 16.6699C100.217 17.7376 100.536 18.5905 101.174 19.2285C101.825 19.8535 102.697 20.166 103.791 20.166C104.234 20.166 104.605 20.1204 104.904 20.0293C105.204 19.9382 105.581 19.7754 106.037 19.541C106.193 19.4629 106.337 19.4238 106.467 19.4238C106.662 19.4238 106.838 19.5085 106.994 19.6777C107.15 19.847 107.229 20.0293 107.229 20.2246C107.229 20.5111 107.098 20.7454 106.838 20.9277C106.343 21.2272 105.848 21.4616 105.354 21.6309C104.859 21.7871 104.286 21.8652 103.635 21.8652ZM110.314 21.7676C110.067 21.7676 109.852 21.6829 109.67 21.5137C109.501 21.3314 109.416 21.1165 109.416 20.8691V12.4902C109.416 12.2428 109.501 12.028 109.67 11.8457C109.852 11.6634 110.067 11.5723 110.314 11.5723C110.562 11.5723 110.777 11.6634 110.959 11.8457C111.141 12.028 111.232 12.2428 111.232 12.4902V13.2715C112.131 12.0736 113.146 11.4746 114.279 11.4746H114.377C114.624 11.4746 114.833 11.5658 115.002 11.748C115.171 11.9173 115.256 12.1257 115.256 12.373C115.256 12.6204 115.165 12.8288 114.982 12.998C114.813 13.1543 114.598 13.2324 114.338 13.2324H114.24C113.628 13.2324 113.062 13.3822 112.541 13.6816C112.033 13.9681 111.597 14.3848 111.232 14.9316V20.8691C111.232 21.1165 111.141 21.3314 110.959 21.5137C110.777 21.6829 110.562 21.7676 110.314 21.7676ZM117.795 21.7676C117.548 21.7676 117.333 21.6829 117.15 21.5137C116.981 21.3314 116.896 21.1165 116.896 20.8691V12.4902C116.896 12.2428 116.981 12.028 117.15 11.8457C117.333 11.6634 117.548 11.5723 117.795 11.5723C118.055 11.5723 118.27 11.6634 118.439 11.8457C118.622 12.015 118.713 12.2298 118.713 12.4902V20.8691C118.713 21.1165 118.622 21.3314 118.439 21.5137C118.257 21.6829 118.042 21.7676 117.795 21.7676ZM116.74 8.58398C116.74 8.31055 116.838 8.07617 117.033 7.88086C117.242 7.67253 117.482 7.56836 117.756 7.56836H117.873C118.146 7.56836 118.381 7.67253 118.576 7.88086C118.785 8.07617 118.889 8.31055 118.889 8.58398V8.66211C118.889 8.93555 118.785 9.17643 118.576 9.38477C118.381 9.58008 118.146 9.67773 117.873 9.67773H117.756C117.482 9.67773 117.242 9.58008 117.033 9.38477C116.838 9.17643 116.74 8.93555 116.74 8.66211V8.58398ZM122.658 26.2598C122.411 26.2598 122.196 26.1686 122.014 25.9863C121.844 25.804 121.76 25.5892 121.76 25.3418V12.4707C121.76 12.2233 121.844 12.015 122.014 11.8457C122.196 11.6634 122.411 11.5723 122.658 11.5723C122.906 11.5723 123.12 11.6634 123.303 11.8457C123.485 12.015 123.576 12.2233 123.576 12.4707V12.9395C124.514 11.9629 125.62 11.4746 126.896 11.4746C127.743 11.4746 128.511 11.6764 129.201 12.0801C129.956 12.4967 130.549 13.1087 130.979 13.916C131.421 14.7233 131.643 15.6413 131.643 16.6699C131.643 17.7376 131.421 18.6556 130.979 19.4238C130.536 20.2051 129.95 20.8105 129.221 21.2402C128.505 21.6569 127.73 21.8652 126.896 21.8652C125.62 21.8652 124.514 21.377 123.576 20.4004V25.3418C123.576 25.6022 123.485 25.8171 123.303 25.9863C123.133 26.1686 122.919 26.2598 122.658 26.2598ZM123.576 18.7207C123.993 19.1634 124.462 19.515 124.982 19.7754C125.516 20.0358 126.07 20.166 126.643 20.166C127.632 20.166 128.407 19.86 128.967 19.248C129.54 18.623 129.826 17.7637 129.826 16.6699C129.826 15.5762 129.54 14.7233 128.967 14.1113C128.407 13.4863 127.632 13.1738 126.643 13.1738C126.07 13.1738 125.516 13.304 124.982 13.5645C124.462 13.8249 123.993 14.1764 123.576 14.6191V18.7207ZM137.463 21.8652C135.549 21.8652 134.592 20.9993 134.592 19.2676V13.3301H133.615C133.368 13.3301 133.173 13.265 133.029 13.1348C132.899 12.9915 132.834 12.7962 132.834 12.5488C132.834 12.3014 132.899 12.1126 133.029 11.9824C133.173 11.8392 133.368 11.7676 133.615 11.7676H134.592V10.3809C134.592 10.0814 134.67 9.85352 134.826 9.69727C134.995 9.54102 135.223 9.46289 135.51 9.46289C135.796 9.46289 136.018 9.54753 136.174 9.7168C136.33 9.87305 136.408 10.0944 136.408 10.3809V11.7676H138.596C138.817 11.7676 138.999 11.8457 139.143 12.002C139.299 12.1452 139.377 12.3275 139.377 12.5488C139.377 12.7572 139.299 12.9395 139.143 13.0957C138.999 13.252 138.817 13.3301 138.596 13.3301H136.408V19.1113C136.408 19.5671 136.512 19.873 136.721 20.0293C136.929 20.1855 137.242 20.2637 137.658 20.2637C137.932 20.2637 138.192 20.2246 138.439 20.1465C138.465 20.1465 138.485 20.14 138.498 20.127C138.628 20.1009 138.739 20.0879 138.83 20.0879C139.025 20.0879 139.195 20.1595 139.338 20.3027C139.481 20.446 139.553 20.6152 139.553 20.8105C139.553 21.11 139.396 21.3444 139.084 21.5137C138.576 21.748 138.036 21.8652 137.463 21.8652ZM148.576 21.6699C148.329 21.6699 148.114 21.5853 147.932 21.416C147.762 21.2337 147.678 21.0189 147.678 20.7715V8.91602C147.678 8.66862 147.762 8.45378 147.932 8.27148C148.114 8.08919 148.329 7.99805 148.576 7.99805H153.186C154.553 7.99805 155.627 8.31706 156.408 8.95508C157.189 9.58008 157.58 10.446 157.58 11.5527C157.58 12.2689 157.411 12.8874 157.072 13.4082C156.734 13.916 156.278 14.3001 155.705 14.5605C156.512 14.821 157.15 15.2311 157.619 15.791C158.101 16.3379 158.342 17.015 158.342 17.8223C158.342 19.0853 157.912 20.0423 157.053 20.6934C156.206 21.3444 154.956 21.6699 153.303 21.6699H148.576ZM149.494 19.7363C149.494 19.8926 149.572 19.9707 149.729 19.9707H153.127C154.351 19.9707 155.23 19.7884 155.764 19.4238C156.311 19.0462 156.584 18.4863 156.584 17.7441C156.584 16.2728 155.438 15.5371 153.146 15.5371H149.494V19.7363ZM152.717 13.8965C153.837 13.8965 154.637 13.7142 155.119 13.3496C155.601 12.972 155.842 12.4186 155.842 11.6895C155.842 11.0775 155.588 10.5957 155.08 10.2441C154.585 9.87956 153.908 9.69727 153.049 9.69727H149.729C149.572 9.69727 149.494 9.77539 149.494 9.93164V13.8965H152.717ZM165.236 21.8652C163.635 21.8652 162.385 21.4095 161.486 20.498C160.601 19.5866 160.158 18.3105 160.158 16.6699C160.158 15.7845 160.327 14.9316 160.666 14.1113C161.018 13.291 161.551 12.6465 162.268 12.1777C162.984 11.709 163.843 11.4746 164.846 11.4746C165.809 11.4746 166.649 11.696 167.365 12.1387C168.042 12.5814 168.57 13.1803 168.947 13.9355C169.325 14.6777 169.514 15.5046 169.514 16.416C169.514 16.6634 169.429 16.8783 169.26 17.0605C169.09 17.2298 168.869 17.3145 168.596 17.3145H161.994C162.111 18.2389 162.456 18.9486 163.029 19.4434C163.615 19.9251 164.403 20.166 165.393 20.166C165.913 20.166 166.376 20.1204 166.779 20.0293C167.196 19.9251 167.613 19.7689 168.029 19.5605C168.12 19.5085 168.238 19.4824 168.381 19.4824C168.589 19.4824 168.771 19.5605 168.928 19.7168C169.097 19.86 169.182 20.0423 169.182 20.2637C169.182 20.5632 169.006 20.8105 168.654 21.0059C168.107 21.3053 167.587 21.5202 167.092 21.6504C166.597 21.7936 165.979 21.8652 165.236 21.8652ZM167.463 15.8301C167.632 15.8301 167.71 15.7454 167.697 15.5762C167.645 15.0553 167.489 14.6191 167.229 14.2676C166.942 13.8509 166.584 13.5384 166.154 13.3301C165.738 13.1217 165.301 13.0176 164.846 13.0176C164.429 13.0176 163.993 13.1152 163.537 13.3105C163.081 13.5319 162.717 13.8639 162.443 14.3066C162.183 14.7363 162.033 15.2441 161.994 15.8301H167.463ZM175.275 21.8652C173.361 21.8652 172.404 20.9993 172.404 19.2676V13.3301H171.428C171.18 13.3301 170.985 13.265 170.842 13.1348C170.712 12.9915 170.646 12.7962 170.646 12.5488C170.646 12.3014 170.712 12.1126 170.842 11.9824C170.985 11.8392 171.18 11.7676 171.428 11.7676H172.404V10.3809C172.404 10.0814 172.482 9.85352 172.639 9.69727C172.808 9.54102 173.036 9.46289 173.322 9.46289C173.609 9.46289 173.83 9.54753 173.986 9.7168C174.143 9.87305 174.221 10.0944 174.221 10.3809V11.7676H176.408C176.63 11.7676 176.812 11.8457 176.955 12.002C177.111 12.1452 177.189 12.3275 177.189 12.5488C177.189 12.7572 177.111 12.9395 176.955 13.0957C176.812 13.252 176.63 13.3301 176.408 13.3301H174.221V19.1113C174.221 19.5671 174.325 19.873 174.533 20.0293C174.742 20.1855 175.054 20.2637 175.471 20.2637C175.744 20.2637 176.005 20.2246 176.252 20.1465C176.278 20.1465 176.298 20.14 176.311 20.127C176.441 20.1009 176.551 20.0879 176.643 20.0879C176.838 20.0879 177.007 20.1595 177.15 20.3027C177.294 20.446 177.365 20.6152 177.365 20.8105C177.365 21.11 177.209 21.3444 176.896 21.5137C176.389 21.748 175.848 21.8652 175.275 21.8652ZM181.838 21.8652C181.278 21.8652 180.751 21.748 180.256 21.5137C179.748 21.2793 179.351 20.9342 179.064 20.4785C178.778 20.0228 178.635 19.502 178.635 18.916C178.635 17.9004 179.025 17.1191 179.807 16.5723C180.601 16.0124 181.714 15.7324 183.146 15.7324H185.49V15.5957C185.49 14.7624 185.282 14.1569 184.865 13.7793C184.462 13.3887 183.804 13.1934 182.893 13.1934C182.424 13.1934 182.001 13.2324 181.623 13.3105C181.245 13.3757 180.803 13.4928 180.295 13.6621L180.041 13.7012C179.846 13.7012 179.67 13.6296 179.514 13.4863C179.37 13.3301 179.299 13.1478 179.299 12.9395C179.299 12.5749 179.475 12.321 179.826 12.1777C180.92 11.709 182.046 11.4746 183.205 11.4746C184.104 11.4746 184.872 11.6569 185.51 12.0215C186.109 12.373 186.558 12.8418 186.857 13.4277C187.157 14.0007 187.307 14.6387 187.307 15.3418V20.8691C187.307 21.1165 187.215 21.3314 187.033 21.5137C186.851 21.6829 186.636 21.7676 186.389 21.7676C186.141 21.7676 185.926 21.6829 185.744 21.5137C185.575 21.3314 185.49 21.1165 185.49 20.8691V20.4004C184.553 21.377 183.335 21.8652 181.838 21.8652ZM180.451 18.7207C180.451 19.7493 181.135 20.2637 182.502 20.2637C183.062 20.2637 183.602 20.1335 184.123 19.873C184.657 19.5996 185.113 19.248 185.49 18.8184V17.1973H183.381C181.428 17.1973 180.451 17.7051 180.451 18.7207Z" fill="#1C1C1C"/>
<defs>
<linearGradient id="paint0_linear_130_619" x1="32.0719" y1="19.7818" x2="27.5996" y2="35.6543" gradientUnits="userSpaceOnUse">
<stop stop-color="#5284F7"/>
<stop offset="1" stop-color="#D04EE7"/>
</linearGradient>
<linearGradient id="paint1_linear_130_619" x1="33.339" y1="7.05917" x2="21.7039" y2="33.9448" gradientUnits="userSpaceOnUse">
<stop stop-color="#5284F7"/>
<stop offset="1" stop-color="#D04EE7"/>
</linearGradient>
<linearGradient id="paint2_linear_130_619" x1="31.3726" y1="3.75497" x2="21.3277" y2="28.3227" gradientUnits="userSpaceOnUse">
<stop stop-color="#5284F7"/>
<stop offset="1" stop-color="#D04EE7"/>
</linearGradient>
<linearGradient id="paint3_linear_130_619" x1="24.1188" y1="26.0841" x2="22.511" y2="33.3994" gradientUnits="userSpaceOnUse">
<stop stop-color="#5284F7"/>
<stop offset="1" stop-color="#D04EE7"/>
</linearGradient>
<linearGradient id="paint4_linear_130_619" x1="33.7145" y1="12.0376" x2="23.3616" y2="36.9511" gradientUnits="userSpaceOnUse">
<stop stop-color="#5284F7"/>
<stop offset="1" stop-color="#D04EE7"/>
</linearGradient>
<linearGradient id="paint5_linear_130_619" x1="28.135" y1="1.35791" x2="24.0605" y2="16.4919" gradientUnits="userSpaceOnUse">
<stop stop-color="#5284F7"/>
<stop offset="1" stop-color="#D04EE7"/>
</linearGradient>
<linearGradient id="paint6_linear_130_619" x1="23.0033" y1="-0.302108" x2="21.3461" y2="7.08068" gradientUnits="userSpaceOnUse">
<stop stop-color="#5284F7"/>
<stop offset="1" stop-color="#D04EE7"/>
</linearGradient>
</defs>
</svg>
