<svg width="68" height="68" viewBox="0 0 68 68" fill="none" xmlns="http://www.w3.org/2000/svg">
<path opacity="0.4" fill-rule="evenodd" clip-rule="evenodd" d="M6.375 57.625C6.375 59.8341 8.16586 61.625 10.375 61.625H57.625C59.8341 61.625 61.625 59.8341 61.625 57.625V10.375C61.625 8.16586 59.8341 6.375 57.625 6.375H10.375C8.16586 6.375 6.375 8.16586 6.375 10.375V57.625Z" fill="black"/>
<path d="M11.6675 57.2306H56.7714L57.355 56.12L41.5762 33.2323L40.4145 33.2238L29.577 48.4388L22.5192 42.5341L21.5077 42.6475L11.1094 56.0888L11.6675 57.2306Z" fill="black"/>
<path d="M31.0334 24.296C31.0305 20.6976 28.098 17.768 24.4969 17.7651C20.8985 17.7651 17.9689 20.6948 17.9689 24.296C17.9689 27.9 20.8985 30.8296 24.4969 30.8296C28.1009 30.8296 31.0334 27.9 31.0334 24.296Z" fill="black"/>
</svg>
