<svg width="32" height="32" viewBox="0 0 32 32" fill="none" xmlns="http://www.w3.org/2000/svg">
<path d="M18.704 23.7137C16.3023 22.8216 13.832 22.6844 11.5676 23.302C9.98929 23.7137 8.47965 24.5371 7.10725 25.5664L6.14655 26.3899L5.87207 26.6644L6.48965 27.2133C6.55827 27.2133 6.55828 27.2819 6.6269 27.3506C6.76414 27.4878 6.90138 27.5564 7.10725 27.6937L7.51895 27.9681L7.93067 27.625C7.99929 27.5564 8.13653 27.4192 8.27377 27.3506C9.50894 26.3213 10.8813 25.6351 12.3224 25.292C14.1751 24.8116 16.1651 24.8802 18.1551 25.6351C19.802 26.2526 23.1643 27.0075 27.2129 25.292L27.3502 25.2233L27.556 25.0175C27.556 24.9489 27.6247 24.9488 27.6933 24.8802C28.0364 24.4685 28.3795 24.0568 28.654 23.5764L30.0264 21.4492L27.8305 22.6844C24.6054 24.4685 21.6547 24.8116 18.704 23.7137Z" fill="url(#paint0_linear_223_661)"/>
<path d="M9.30369 16.302C11.1564 15.8217 13.1464 15.8903 15.1364 16.6451C17.3322 17.4685 22.9591 18.6351 29.2722 12.9396L30.3015 11.9103L30.3701 11.8417L30.6446 11.5672L30.5073 11.2241C30.4387 10.9496 30.3014 10.6065 30.1642 10.2634L29.8211 9.30273L29.1349 9.98894C29.0663 10.1262 28.929 10.1948 28.7918 10.332C25.7725 13.4199 21.1063 16.5765 15.754 14.6551C13.3523 13.7631 10.882 13.6258 8.61749 14.2434C6.42164 14.861 4.50028 16.0275 2.71615 17.6744V17.6058L1.68685 18.7037C1.68685 18.7723 1.61824 18.7723 1.54962 18.8409L1.34375 19.0468L1.41237 19.3213C1.48099 19.6644 1.61823 20.0075 1.68685 20.3506L2.09858 21.4485L2.78478 20.5565C2.8534 20.4192 2.99063 20.3506 3.05925 20.2134C4.50028 18.9096 6.49026 17.0568 9.30369 16.302Z" fill="url(#paint1_linear_223_661)"/>
<path d="M2.6469 15.0672C4.22516 13.4203 6.00927 12.391 7.93064 11.842C9.78338 11.3617 11.7734 11.4303 13.7633 12.1851C19.9392 14.4496 25.2915 10.7441 27.6246 8.75412L28.5167 7.86207L28.8598 7.58757L28.5853 7.17587C28.3794 6.97001 28.2422 6.69552 28.0363 6.42104L27.6246 5.87207L27.1443 6.35242C27.0757 6.42104 26.9384 6.55828 26.8698 6.6269C23.9878 9.3717 19.5274 12.1851 14.4496 10.2638C12.0478 9.37171 9.57753 9.23447 7.31306 9.85205C5.87204 10.2638 4.49963 10.95 3.12723 11.842L1.6862 13.0086C1.54896 13.1458 1.48034 13.2144 1.3431 13.3517L1.20587 13.4889V13.6948C1.13725 14.1751 1.13724 14.6555 1.06862 15.0672L1 16.7827L2.16655 15.5475C2.30379 15.4103 2.44104 15.2044 2.6469 15.0672Z" fill="url(#paint2_linear_223_661)"/>
<path d="M20.6948 28.3794L20.5576 28.7911L20.6948 28.3794C20.489 28.3107 20.3517 28.2421 20.1459 28.1735C17.7442 27.2814 15.2738 27.1442 13.0094 27.7618C12.529 27.899 12.0487 28.0363 11.5684 28.2421L9.92147 28.9969L9.50977 29.2028L10.8822 29.6831C11.2939 29.8204 11.7056 29.9576 12.1173 30.0949L12.3232 30.1635L12.529 30.0949C12.7349 30.0262 12.9408 29.889 13.1466 29.889C13.2839 29.889 13.4211 29.8204 13.5583 29.7518C15.2052 29.34 16.9893 29.34 18.9107 29.9576C19.1166 30.0262 19.2538 30.0949 19.4597 30.1635L19.8028 30.3007L20.0086 30.2321C20.489 30.0949 21.0379 29.9576 21.4497 29.7518L23.371 29.0656L21.381 28.5852C21.1752 28.5166 20.9007 28.448 20.6948 28.3794Z" fill="url(#paint3_linear_223_661)"/>
<path d="M31.193 14.1758L30.1637 15.2051C30.0265 15.3423 29.8893 15.4796 29.752 15.6168C26.9386 18.293 22.4097 21.175 17.3318 19.2537C14.9301 18.3616 12.4598 18.2244 10.1953 18.842C8.06806 19.4595 6.14668 20.5575 4.43118 22.2043L3.53912 23.165L3.26465 23.5081L3.53912 23.9198C3.74499 24.1943 3.88223 24.4002 4.01947 24.6747L4.43118 25.2923L4.91153 24.6747C4.98015 24.6061 5.11738 24.4688 5.186 24.4002C6.83289 22.6161 8.61701 21.5181 10.6756 20.9692C12.5284 20.4888 14.5183 20.5574 16.5083 21.3123C18.2238 21.9299 20.008 22.1357 21.7921 21.9299C24.9486 21.5868 28.1051 19.8026 30.4382 17.8127C30.5755 17.6754 30.7127 17.6068 30.8499 17.4696L31.0558 17.2637V17.0578C31.0558 16.6461 31.1244 16.1658 31.1244 15.7541L31.193 14.1758Z" fill="url(#paint4_linear_223_661)"/>
<path d="M5.11765 7.86227L4.9118 7.45054L5.11765 7.86227C5.52937 7.65641 6.00973 7.51916 6.42145 7.38192C8.27419 6.90158 10.2642 6.9702 12.2542 7.72502C13.5579 8.20536 14.8617 8.41122 16.3027 8.41122C19.1848 8.41122 22.0668 7.38192 24.743 5.39194L25.7723 4.56849L26.1154 4.29401L25.4978 3.81366C25.292 3.6078 25.0175 3.40195 24.743 3.26471L24.3313 2.99023L23.9882 3.26471C23.8509 3.33333 23.7823 3.47057 23.6451 3.53919C20.0082 6.28399 16.3714 7.03882 12.9404 5.73504C10.47 4.84298 7.9997 4.63712 5.52937 5.39194C5.32351 5.46056 5.11765 5.52917 4.84317 5.59779L4.70595 5.66642L4.50007 5.87227C4.50007 5.94089 4.43146 5.9409 4.36284 6.00952C4.08836 6.42124 3.74525 6.76435 3.47077 7.17607L2.16699 9.16605L4.29422 8.06812C4.63732 8.06812 4.91179 7.93089 5.11765 7.86227Z" fill="url(#paint5_linear_223_661)"/>
<path d="M10.7447 3.19583L10.9505 3.26446C11.8426 3.60756 13.215 3.95066 14.9305 3.95066C16.7146 3.95066 18.4301 3.53893 20.1456 2.85273L22.2729 1.82343L20.8318 1.3431C20.4201 1.20586 20.0084 1.06862 19.528 1H19.3222L19.1163 1.0686C18.9105 1.13722 18.7046 1.27448 18.4987 1.3431C16.4401 2.09792 14.3815 2.23516 12.3916 1.6862C12.1857 1.61758 11.9798 1.54895 11.774 1.48033L11.5681 1.4117L11.3623 1.48033C10.9505 1.61757 10.5388 1.75482 10.1271 1.96068L8.54883 2.64688L10.1957 3.12721C10.333 3.05859 10.5388 3.12721 10.7447 3.19583Z" fill="url(#paint6_linear_223_661)"/>
<defs>
<linearGradient id="paint0_linear_223_661" x1="33.0719" y1="20.7818" x2="28.5996" y2="36.6543" gradientUnits="userSpaceOnUse">
<stop stop-color="#5284F7"/>
<stop offset="1" stop-color="#D04EE7"/>
</linearGradient>
<linearGradient id="paint1_linear_223_661" x1="34.339" y1="8.05917" x2="22.7039" y2="34.9448" gradientUnits="userSpaceOnUse">
<stop stop-color="#5284F7"/>
<stop offset="1" stop-color="#D04EE7"/>
</linearGradient>
<linearGradient id="paint2_linear_223_661" x1="32.3726" y1="4.75497" x2="22.3277" y2="29.3227" gradientUnits="userSpaceOnUse">
<stop stop-color="#5284F7"/>
<stop offset="1" stop-color="#D04EE7"/>
</linearGradient>
<linearGradient id="paint3_linear_223_661" x1="25.1188" y1="27.0841" x2="23.511" y2="34.3994" gradientUnits="userSpaceOnUse">
<stop stop-color="#5284F7"/>
<stop offset="1" stop-color="#D04EE7"/>
</linearGradient>
<linearGradient id="paint4_linear_223_661" x1="34.7145" y1="13.0376" x2="24.3616" y2="37.9511" gradientUnits="userSpaceOnUse">
<stop stop-color="#5284F7"/>
<stop offset="1" stop-color="#D04EE7"/>
</linearGradient>
<linearGradient id="paint5_linear_223_661" x1="29.135" y1="2.35791" x2="25.0605" y2="17.4919" gradientUnits="userSpaceOnUse">
<stop stop-color="#5284F7"/>
<stop offset="1" stop-color="#D04EE7"/>
</linearGradient>
<linearGradient id="paint6_linear_223_661" x1="24.0033" y1="0.697892" x2="22.3461" y2="8.08068" gradientUnits="userSpaceOnUse">
<stop stop-color="#5284F7"/>
<stop offset="1" stop-color="#D04EE7"/>
</linearGradient>
</defs>
</svg> 